{
 "asset": {
  "version": "2.0",
  "generator": "tools/generate_glow_bloom_gltf.py"
 },
 "buffers": [
  {
   "byteLength": 2448,
   "uri": "data:application/octet-stream;base64,"
  }
 ],
 "bufferViews": [
  {
   "buffer": 0,
   "byteOffset": 0,
   "byteLength": 864
  },
  {
   "buffer": 0,
   "byteOffset": 864,
   "byteLength": 864
  },
  {
   "buffer": 0,
   "byteOffset": 1728,
   "byteLength": 576
  },
  {
   "buffer": 0,
   "byteOffset": 2304,
   "byteLength": 144
  }
 ],
 "accessors": [
  {
   "bufferView": 0,
   "componentType": 5126,
   "count": 72,
   "type": "VEC3",
   "min": [
    -0.36000000000000004,
    0.0,
    -0.31000000000000005
   ],
   "max": [
    0.5,
    1.5,
    0.25
   ]
  },
  {
   "bufferView": 1,
   "componentType": 5126,
   "count": 72,
   "type": "VEC3"
  },
  {
   "bufferView": 2,
   "componentType": 5126,
   "count": 72,
   "type": "VEC2"
  },
  {
   "bufferView": 3,
   "componentType": 5123,
   "count": 72,
   "type": "SCALAR"
  }
 ],
 "meshes": [
  {
   "primitives": [
    {
     "attributes": {
      "POSITION": 0,
      "NORMAL": 1,
      "TEXCOORD_0": 2
     },
     "indices": 3
    }
   ]
  }
 ],
 "nodes": [
  {
   "name": "glow_bloom",
   "mesh": 0
  }
 ],
 "scenes": [
  {
   "nodes": [
    0
   ]
  }
 ],
 "scene": 0
}
