{
 "asset": {
  "version": "2.0",
  "generator": "tools/generate_grovestrider_gltf.py"
 },
 "buffers": [
  {
   "byteLength": 8724,
   "uri": "data:application/octet-stream;base64,"
  }
 ],
 "bufferViews": [
  {
   "buffer": 0,
   "byteOffset": 0,
   "byteLength": 1728
  },
  {
   "buffer": 0,
   "byteOffset": 1728,
   "byteLength": 1728
  },
  {
   "buffer": 0,
   "byteOffset": 3456,
   "byteLength": 1152
  },
  {
   "buffer": 0,
   "byteOffset": 4608,
   "byteLength": 576
  },
  {
   "buffer": 0,
   "byteOffset": 5184,
   "byteLength": 2304
  },
  {
   "buffer": 0,
   "byteOffset": 7488,
   "byteLength": 432
  },
  {
   "buffer": 0,
   "byteOffset": 7920,
   "byteLength": 384
  },
  {
   "buffer": 0,
   "byteOffset": 8304,
   "byteLength": 20
  },
  {
   "buffer": 0,
   "byteOffset": 8324,
   "byteLength": 80
  },
  {
   "buffer": 0,
   "byteOffset": 8404,
   "byteLength": 60
  },
  {
   "buffer": 0,
   "byteOffset": 8464,
   "byteLength": 20
  },
  {
   "buffer": 0,
   "byteOffset": 8484,
   "byteLength": 80
  },
  {
   "buffer": 0,
   "byteOffset": 8564,
   "byteLength": 80
  },
  {
   "buffer": 0,
   "byteOffset": 8644,
   "byteLength": 80
  }
 ],
 "accessors": [
  {
   "bufferView": 0,
   "componentType": 5126,
   "count": 144,
   "type": "VEC3",
   "min": [
    -0.41000000000000003,
    0.0,
    -0.55
   ],
   "max": [
    0.41000000000000003,
    1.3,
    0.95
   ]
  },
  {
   "bufferView": 1,
   "componentType": 5126,
   "count": 144,
   "type": "VEC3"
  },
  {
   "bufferView": 2,
   "componentType": 5126,
   "count": 144,
   "type": "VEC2"
  },
  {
   "bufferView": 3,
   "componentType": 5121,
   "count": 144,
   "type": "VEC4"
  },
  {
   "bufferView": 4,
   "componentType": 5126,
   "count": 144,
   "type": "VEC4"
  },
  {
   "bufferView": 5,
   "componentType": 5123,
   "count": 216,
   "type": "SCALAR"
  },
  {
   "bufferView": 6,
   "componentType": 5126,
   "count": 6,
   "type": "MAT4"
  },
  {
   "bufferView": 7,
   "componentType": 5126,
   "count": 5,
   "type": "SCALAR",
   "min": [
    0.0
   ],
   "max": [
    2.4
   ]
  },
  {
   "bufferView": 8,
   "componentType": 5126,
   "count": 5,
   "type": "VEC4"
  },
  {
   "bufferView": 9,
   "componentType": 5126,
   "count": 5,
   "type": "VEC3"
  },
  {
   "bufferView": 10,
   "componentType": 5126,
   "count": 5,
   "type": "SCALAR",
   "min": [
    0.0
   ],
   "max": [
    0.8
   ]
  },
  {
   "bufferView": 11,
   "componentType": 5126,
   "count": 5,
   "type": "VEC4"
  },
  {
   "bufferView": 12,
   "componentType": 5126,
   "count": 5,
   "type": "VEC4"
  },
  {
   "bufferView": 13,
   "componentType": 5126,
   "count": 5,
   "type": "VEC4"
  }
 ],
 "meshes": [
  {
   "primitives": [
    {
     "attributes": {
      "POSITION": 0,
      "NORMAL": 1,
      "TEXCOORD_0": 2,
      "JOINTS_0": 3,
      "WEIGHTS_0": 4
     },
     "indices": 5
    }
   ]
  }
 ],
 "skins": [
  {
   "joints": [
    0,
    1,
    2,
    3,
    4,
    5
   ],
   "inverseBindMatrices": 6,
   "skeleton": 0
  }
 ],
 "animations": [
  {
   "name": "idle",
   "samplers": [
    {
     "input": 7,
     "output": 8,
     "interpolation": "LINEAR"
    },
    {
     "input": 7,
     "output": 9,
     "interpolation": "LINEAR"
    }
   ],
   "channels": [
    {
     "sampler": 0,
     "target": {
      "node": 5,
      "path": "rotation"
     }
    },
    {
     "sampler": 1,
     "target": {
      "node": 0,
      "path": "translation"
     }
    }
   ]
  },
  {
   "name": "walk",
   "samplers": [
    {
     "input": 10,
     "output": 11,
     "interpolation": "LINEAR"
    },
    {
     "input": 10,
     "output": 12,
     "interpolation": "LINEAR"
    },
    {
     "input": 10,
     "output": 13,
     "interpolation": "LINEAR"
    }
   ],
   "channels": [
    {
     "sampler": 0,
     "target": {
      "node": 1,
      "path": "rotation"
     }
    },
    {
     "sampler": 1,
     "target": {
      "node": 2,
      "path": "rotation"
     }
    },
    {
     "sampler": 1,
     "target": {
      "node": 3,
      "path": "rotation"
     }
    },
    {
     "sampler": 0,
     "target": {
      "node": 4,
      "path": "rotation"
     }
    },
    {
     "sampler": 2,
     "target": {
      "node": 5,
      "path": "rotation"
     }
    }
   ]
  }
 ],
 "nodes": [
  {
   "name": "body",
   "translation": [
    0.0,
    0.85,
    0.0
   ],
   "children": [
    1,
    2,
    3,
    4,
    5
   ]
  },
  {
   "name": "leg_fl",
   "translation": [
    0.32,
    -0.25,
    0.42
   ]
  },
  {
   "name": "leg_fr",
   "translation": [
    -0.32,
    -0.25,
    0.42
   ]
  },
  {
   "name": "leg_bl",
   "translation": [
    0.32,
    -0.25,
    -0.42
   ]
  },
  {
   "name": "leg_br",
   "translation": [
    -0.32,
    -0.25,
    -0.42
   ]
  },
  {
   "name": "head",
   "translation": [
    0.0,
    0.25,
    0.65
   ]
  },
  {
   "name": "grovestrider_mesh",
   "mesh": 0,
   "skin": 0
  }
 ],
 "scenes": [
  {
   "nodes": [
    0,
    6
   ]
  }
 ],
 "scene": 0
}
